<svg id="Layer_1" enable-background="new 0 0 400 400" height="512" viewBox="0 0 400 400" width="512" xmlns="http://www.w3.org/2000/svg"><g><g><g><g><g><g><path clip-rule="evenodd" d="m330.55 169.22c-1.56 0-3.1-.62-4.25-1.85l-126.02-136.71-126.05 136.71c-2.16 2.33-5.81 2.5-8.14.34s-2.5-5.81-.34-8.14l130.28-141.29c1.08-1.18 2.62-1.85 4.22-1.85s3.14.67 4.22 1.85l130.27 141.29c2.16 2.33 2.02 5.98-.34 8.14-1.04 1-2.43 1.51-3.85 1.51z" fill="rgb(255,255,255)" fill-rule="evenodd"/></g></g><g><path clip-rule="evenodd" d="m200.28 385.05c-3.19 0-5.76-2.57-5.76-5.76v-357c0-3.19 2.57-5.76 5.76-5.76s5.76 2.57 5.76 5.76v357c0 3.19-2.57 5.76-5.76 5.76z" fill="rgb(255,255,255)" fill-rule="evenodd"/></g></g></g></g></g></svg>